{"title":"S. Imamura - Unagi.AKA.The.Eel.1997.DVDRip.x264 - 134 min","uid":10697820,"size":2099564093,"categoryP":"video","categoryS":"movies","magnet":"?xt=urn:btih:706b462c48a38fab2884101c65ed30a66240aa1e&amp;dn=S.+Imamura+-+Unagi.AKA.The.Eel.1997.DVDRip.x264+-+134+min&amp;tr=udp%3A%2F%2Ftracker.openbittorrent.com%3A80&amp;tr=udp%3A%2F%2Fopen.demonii.com%3A1337&amp;tr=udp%3A%2F%2Ftracker.coppersurfer.tk%3A6969&amp;tr=udp%3A%2F%2Fexodus.desync.com%3A6969","seeders":13,"leechers":6,"uploader":"rpessoa","files":1,"time":1407194765,"description":"White-collar worker Yamashita finds out that his wife has a lover visiting her when he's away, suddenly returns home and kills her. After eight years in prison, he returns to live in a small village, opens a barber shop (he was trained as a barber in prison) and talks almost to no-one except for the eel he &quot;befriended&quot; in prison. One day he finds the unconscious body of Keiko, who attempted suicide and reminds him of his wife. She starts to work at his shop, but he doesn't let her become close to him. Written by Anonymous\n &lt;a href=&quot;\nhttp://www.imdb.com/title/tt0120408/&quot; rel=&quot;nofollow&quot; target=&quot;_NEW&quot;&gt;\nhttp://www.imdb.com/title/tt0120408/&lt;/a&gt;\n\nGeneral\nUnique ID : 204673103840157813181565023073416469796 (0x99FA9B1F840F2E4988CCACC5F5B75D24)\nComplete name : Unagi.AKA.The.Eel.1997.DVDRip.x264.mkv\nFormat : Matroska\nFormat version : Version 4 / Version 2\nFile size : 1.96 GiB\nDuration : 2h 13mn\nOverall bit rate : 2 091 Kbps\nEncoded date : UTC 2014-06-05 12:18:36\nWriting application : mkvmerge v6.3.0 ('You can't stop me!') built on Jun 28 2013 20:09:41\nWriting library : libebml v1.3.0 + libmatroska v1.4.0\n\nVideo\nID : 1\nFormat : AVC\nFormat/Info : Advanced Video Codec\nFormat profile : &lt;a class=&quot;__cf_email__&quot; href=&quot;/cdn-cgi/l/email-protection&quot; data-cfemail=&quot;662e0f010e262a554857&quot;&gt;[email&amp;#160;protected]&lt;/a&gt;&lt;script cf-hash='f9e31' type=&quot;text/javascript&quot;&gt;\n/* &lt;![CDATA[ */!function(){try{var t=&quot;currentScript&quot;in document?document.currentScript:function(){for(var t=document.getElementsByTagName(&quot;script&quot;),e=t.length;e--;)if(t[e].getAttribute(&quot;cf-hash&quot;))return t[e]}();if(t&amp;&amp;t.previousSibling){var e,r,n,i,c=t.previousSibling,a=c.getAttribute(&quot;data-cfemail&quot;);if(a){for(e=&quot;&quot;,r=parseInt(a.substr(0,2),16),n=2;a.length-n;n+=2)i=parseInt(a.substr(n,2),16)^r,e+=String.fromCharCode(i);e=document.createTextNode(e),c.parentNode.replaceChild(e,c)}}}catch(u){}}();/* ]]&gt; */&lt;/script&gt;\nFormat settings, CABAC : Yes\nFormat settings, ReFrames : 11 frames\nCodec ID : V_MPEG4/ISO/AVC\nDuration : 2h 13mn\nBit rate : 1 857 Kbps\nWidth : 684 pixels\nHeight : 458 pixels\nDisplay aspect ratio : 16:9\nOriginal display aspect ratio : 16:9\nFrame rate : 23.976 fps\nColor space : YUV\nChroma subsampling : 4:2:0\nBit depth : 8 bits\nScan type : Progressive\nBits/(Pixel*Frame) : 0.247\nStream size : 1.74 GiB (89%)\nWriting library : x264 core 142 r2431 ac76440\nEncoding settings : cabac=1 / ref=11 / deblock=1:-3:-3 / analyse=0x3:0x113 / me=umh / subme=11 / psy=1 / psy_rd=1.05:0.00 / mixed_ref=1 / me_range=32 / chroma_me=1 / trellis=2 / 8x8dct=1 / cqm=0 / deadzone=21,11 / fast_pskip=0 / chroma_qp_offset=-2 / threads=12 / lookahead_threads=2 / sliced_threads=0 / nr=0 / decimate=1 / interlaced=0 / bluray_compat=0 / constrained_intra=0 / bframes=9 / b_pyramid=2 / b_adapt=2 / b_bias=0 / direct=3 / weightb=1 / open_gop=0 / weightp=2 / keyint=250 / keyint_min=23 / scenecut=40 / intra_refresh=0 / rc_lookahead=60 / rc=crf / mbtree=1 / crf=15.9 / qcomp=0.70 / qpmin=0 / qpmax=69 / qpstep=4 / ip_ratio=1.40 / aq=2:1.05\nLanguage : English\nDefault : Yes\nForced : No\n\nAudio\nID : 2\nFormat : AC-3\nFormat/Info : Audio Coding 3\nMode extension : CM (complete main)\nCodec ID : A_AC3\nDuration : 2h 13mn\nBit rate mode : Constant\nBit rate : 192 Kbps\nChannel(s) : 2 channels\nChannel positions : Front: L R\nSampling rate : 48.0 KHz\nBit depth : 16 bits\nCompression mode : Lossy\nStream size : 184 MiB (9%)\nLanguage : Japanese\nDefault : Yes\nForced : No\n\nText\nID : 3\nFormat : UTF-8\nCodec ID : S_TEXT/UTF8\nCodec ID/Info : UTF-8 Plain Text\nLanguage : English\nDefault : Yes\nForced : No\n\nMenu\n00:00:00.000 : en:Chapter 1\n00:05:37.834 : en:Chapter 2\n00:11:14.134 : en:Chapter 3\n00:25:42.468 : en:Chapter 4\n00:33:11.768 : en:Chapter 5\n00:51:41.268 : en:Chapter 6\n01:10:07.236 : en:Chapter 7\n01:27:32.705 : en:Chapter 8\n01:39:09.205 : en:Chapter 9\n01:50:37.006 : en:Chapter 10\n02:00:01.139 : en:Chapter 11\n02:06:45.773 : en:Chapter 12\n02:11:01.607 : en:Chapter 13\n\nMy rip.","torrent":{"xt":"urn:btih:706b462c48a38fab2884101c65ed30a66240aa1e","amp;dn":"S.+Imamura+-+Unagi.AKA.The.Eel.1997.DVDRip.x264+-+134+min","amp;tr":["udp%3A%2F%2Ftracker.openbittorrent.com%3A80","udp%3A%2F%2Fopen.demonii.com%3A1337","udp%3A%2F%2Ftracker.coppersurfer.tk%3A6969","udp%3A%2F%2Fexodus.desync.com%3A6969"],"infoHash":"706b462c48a38fab2884101c65ed30a66240aa1e","infoHashBuffer":{"type":"Buffer","data":[112,107,70,44,72,163,143,171,40,132,16,28,101,237,48,166,98,64,170,30]},"announce":[],"urlList":[]}}